<?xml version="1.0" standalone="no"?>
<!DOCTYPE svg PUBLIC "-//W3C//DTD SVG 20010904//EN"
 "http://www.w3.org/TR/2001/REC-SVG-20010904/DTD/svg10.dtd">
<svg version="1.0" xmlns="http://www.w3.org/2000/svg"
 width="1280.000000pt" height="1223.000000pt" viewBox="0 0 1280.000000 1223.000000"
 preserveAspectRatio="xMidYMid meet">
<g transform="translate(0.000000,1223.000000) scale(0.100000,-0.100000)"
fill="#000000" stroke="none">
<path d="M8210 12204 c-173 -78 -312 -340 -435 -820 -25 -94 -60 -254 -79
-355 -38 -200 -99 -624 -93 -642 7 -21 296 358 465 610 188 281 343 569 404
753 28 84 32 108 32 212 1 113 0 117 -29 160 -22 31 -48 52 -95 75 -78 39 -98
40 -170 7z"/>
<path d="M4293 11445 c-72 -20 -146 -58 -194 -102 -116 -105 -114 -255 5 -498
80 -162 153 -270 543 -805 388 -532 533 -827 533 -1079 0 -153 -44 -258 -149
-361 -80 -78 -145 -112 -224 -118 -52 -4 -67 0 -134 33 -102 50 -191 143 -385
398 -255 336 -369 437 -498 437 -95 0 -204 -81 -232 -173 -29 -95 24 -187 242
-427 247 -271 293 -382 219 -528 -55 -111 -148 -171 -262 -172 -122 0 -197 34
-466 213 -319 213 -432 241 -546 136 -88 -81 -116 -186 -75 -278 46 -101 123
-168 412 -362 292 -195 384 -278 440 -394 51 -108 32 -234 -44 -299 -63 -54
-114 -68 -269 -73 -219 -8 -398 23 -1029 177 -696 171 -973 217 -1149 192
-144 -20 -221 -80 -221 -170 0 -56 38 -98 125 -138 172 -79 432 -120 1175
-184 793 -68 1080 -115 1266 -205 76 -37 139 -96 150 -141 11 -42 -14 -152
-51 -230 -106 -221 -339 -317 -770 -317 -210 0 -368 14 -825 73 -448 58 -580
70 -774 70 -275 0 -400 -33 -496 -129 -74 -74 -94 -135 -88 -264 6 -135 41
-192 143 -238 41 -19 73 -24 180 -27 208 -7 367 24 940 183 401 110 548 148
709 181 549 112 858 49 974 -198 39 -82 52 -148 52 -263 0 -150 -43 -239 -163
-336 -79 -64 -223 -132 -482 -229 -263 -98 -361 -147 -431 -217 -63 -62 -78
-103 -72 -192 5 -72 30 -131 72 -170 21 -20 33 -23 74 -19 71 7 134 53 334
245 276 263 381 334 510 341 90 6 136 -18 228 -114 217 -229 235 -405 58 -570
-93 -85 -228 -159 -558 -304 -145 -64 -284 -137 -345 -183 -155 -114 -154
-240 3 -390 106 -100 218 -131 333 -92 112 39 250 177 436 440 276 389 365
489 467 521 52 16 57 16 102 -1 26 -10 64 -35 85 -56 49 -49 112 -163 146
-264 24 -71 27 -95 27 -215 0 -124 -2 -142 -31 -227 -107 -319 -348 -591
-1003 -1129 -473 -388 -628 -543 -713 -714 -45 -91 -50 -185 -13 -265 33 -73
119 -156 221 -215 108 -61 176 -83 261 -84 172 -1 302 125 434 421 59 133 91
225 226 647 132 413 187 563 274 741 159 326 339 497 569 542 141 28 305 -2
497 -92 105 -49 169 -103 204 -172 19 -38 25 -68 28 -143 5 -121 -11 -205 -89
-448 -69 -214 -109 -377 -109 -442 0 -137 78 -217 223 -228 189 -13 262 97
352 529 69 335 116 460 203 542 123 114 304 96 409 -41 71 -93 102 -302 83
-561 -13 -183 -34 -350 -95 -741 -86 -553 -107 -775 -94 -1002 14 -258 82
-393 225 -448 86 -33 136 -35 229 -10 107 28 158 55 207 108 84 92 114 209
105 416 -10 225 -41 366 -232 1033 -132 459 -178 656 -196 845 -26 275 41 450
203 524 80 36 196 45 263 20 137 -53 220 -172 355 -506 70 -176 124 -288 169
-354 84 -121 190 -153 320 -95 59 26 89 54 112 104 40 87 21 160 -114 425 -61
118 -123 241 -138 272 -47 94 -72 185 -72 259 0 121 56 195 203 267 71 35 79
37 175 37 90 0 105 -3 152 -28 29 -15 83 -56 121 -91 127 -121 226 -281 404
-659 177 -375 247 -513 318 -620 190 -288 366 -355 576 -219 125 81 178 159
179 262 0 100 -43 186 -161 324 -80 94 -207 205 -494 435 -360 287 -474 384
-582 494 -109 110 -206 247 -234 328 -72 209 66 415 302 451 141 22 316 -42
504 -183 119 -90 135 -104 419 -382 380 -371 504 -477 645 -549 85 -43 141
-58 223 -58 103 0 147 20 169 76 41 109 -18 228 -180 363 -99 82 -237 172
-501 328 -439 259 -572 348 -696 462 -125 115 -199 258 -183 356 9 59 49 134
99 185 31 32 52 69 75 128 44 115 76 169 135 228 183 184 457 162 920 -71 99
-50 312 -167 474 -259 313 -180 487 -267 616 -311 95 -32 224 -44 279 -25 80
26 151 122 162 218 7 59 -18 100 -95 154 -116 81 -305 135 -881 253 -813 166
-1063 246 -1220 392 -107 98 -126 203 -62 329 93 181 253 290 484 330 127 22
369 14 643 -22 287 -38 521 -39 610 -5 41 16 76 40 110 75 70 71 90 134 89
286 0 124 -27 294 -50 321 -8 9 -12 23 -9 32 9 23 -28 88 -73 129 -76 69 -191
72 -380 12 -51 -17 -252 -111 -487 -229 -558 -281 -694 -331 -889 -323 -123 4
-188 31 -261 109 -83 89 -155 287 -139 383 26 159 158 253 549 391 321 114
432 171 491 256 69 100 16 302 -92 354 -83 39 -168 20 -450 -104 -255 -111
-383 -126 -519 -62 -74 34 -158 108 -186 163 -29 56 -25 124 9 179 75 117 202
197 717 453 452 225 587 306 706 425 98 99 133 168 133 261 -2 157 -149 334
-313 376 -81 20 -166 7 -267 -41 -197 -95 -364 -264 -871 -885 -299 -366 -436
-489 -566 -506 -54 -8 -112 19 -156 73 -60 72 -75 171 -46 288 22 89 129 296
258 500 200 319 256 429 278 549 22 116 -11 193 -104 246 -42 24 -64 30 -111
30 -149 0 -250 -109 -496 -535 -163 -282 -235 -390 -321 -477 -147 -150 -313
-162 -428 -32 -50 57 -66 116 -64 229 2 107 24 215 103 495 32 114 66 254 76
310 44 264 -26 394 -218 408 -58 4 -72 1 -110 -21 -93 -54 -134 -148 -208
-467 -66 -284 -114 -410 -188 -492 -126 -140 -378 -107 -450 59 -47 111 -51
240 -15 508 9 66 17 192 17 280 1 153 0 162 -24 205 -45 81 -131 113 -235 90
-72 -16 -111 -50 -130 -112 -27 -92 -16 -183 61 -485 76 -299 89 -410 59 -509
-29 -98 -105 -143 -255 -151 -392 -21 -626 279 -764 977 -14 69 -50 267 -81
440 -64 361 -94 494 -142 634 -48 139 -84 205 -148 275 -88 95 -196 122 -332
86z"/>
<path d="M10560 8005 c-99 -32 -171 -128 -171 -228 0 -66 18 -112 65 -165 121
-134 328 -92 401 81 72 174 -113 370 -295 312z"/>
<path d="M149 7582 c-64 -33 -112 -92 -135 -166 -17 -53 -17 -55 7 -112 28
-71 80 -131 134 -155 56 -26 147 -25 202 2 95 46 157 165 134 261 -37 161
-202 243 -342 170z"/>
<path d="M11540 5710 c-274 -22 -705 -72 -717 -83 -6 -6 279 -127 473 -200
513 -195 939 -297 1184 -284 173 9 265 64 304 180 19 56 19 58 0 115 -45 136
-184 212 -469 258 -117 18 -608 27 -775 14z"/>
<path d="M1666 3765 c-855 -112 -1429 -298 -1580 -513 -54 -77 -47 -196 17
-268 53 -61 99 -78 207 -78 231 0 540 139 1015 455 175 116 462 325 545 398
l35 30 -30 0 c-16 -1 -111 -11 -209 -24z"/>
</g>
</svg>
