<?xml version="1.0" standalone="no"?>
<!DOCTYPE svg PUBLIC "-//W3C//DTD SVG 20010904//EN"
 "http://www.w3.org/TR/2001/REC-SVG-20010904/DTD/svg10.dtd">
<svg version="1.0" xmlns="http://www.w3.org/2000/svg"
 width="245.000000pt" height="206.000000pt" viewBox="0 0 245.000000 206.000000"
 preserveAspectRatio="xMidYMid meet">

<g transform="translate(0.000000,206.000000) scale(0.100000,-0.100000)"
fill="#000000" stroke="none">
<path d="M920 2043 c-38 -26 -56 -51 -101 -138 -53 -101 -94 -162 -119 -175
-31 -17 -57 3 -65 50 -8 47 -32 65 -69 50 -35 -13 -52 -43 -76 -138 -11 -45
-27 -97 -34 -115 -8 -17 -22 -53 -30 -78 -37 -104 -129 -172 -291 -213 -70
-17 -105 -32 -118 -47 -22 -27 -11 -42 51 -69 51 -23 82 -47 82 -65 0 -6 -25
-51 -56 -99 -68 -108 -90 -164 -72 -183 11 -10 24 -7 71 18 32 16 62 27 67 24
6 -3 10 -55 10 -114 0 -80 4 -112 14 -120 18 -15 40 -5 57 25 14 26 56 54 83
54 31 0 67 -44 73 -89 5 -35 -4 -73 -52 -216 -57 -168 -58 -174 -41 -199 12
-20 25 -26 51 -26 55 0 71 24 79 120 7 88 17 110 47 110 13 0 21 -12 29 -42
16 -63 28 -88 46 -95 23 -8 32 12 40 86 5 49 13 70 31 89 22 22 30 23 78 17
50 -6 55 -4 70 19 22 33 41 39 76 21 48 -26 202 -175 387 -379 49 -54 84 -71
113 -56 28 16 24 51 -17 131 -42 85 -43 122 -1 127 36 4 69 -29 137 -142 30
-48 72 -108 94 -133 34 -39 43 -44 75 -41 33 3 36 6 39 39 3 38 12 25 -160
249 -104 135 -103 167 6 136 69 -20 79 -20 107 3 l23 18 -27 23 c-15 13 -27
32 -27 42 0 30 42 39 138 29 105 -11 138 -6 158 25 14 20 14 26 0 53 -9 16
-36 44 -59 60 -56 38 -105 94 -113 128 -9 36 13 74 56 96 38 20 55 19 200 -7
154 -29 250 3 250 81 0 67 -76 106 -161 83 -59 -16 -273 -14 -379 4 -204 33
-231 84 -133 250 78 133 103 187 103 223 0 46 -13 68 -49 83 -45 18 -85 0
-187 -86 -54 -45 -104 -79 -127 -85 -102 -27 -178 72 -111 142 31 32 27 52
-13 71 -21 10 -29 22 -31 45 -5 52 -23 59 -90 35 -90 -33 -152 -7 -152 64 0
27 9 45 44 82 44 48 66 82 66 102 0 13 -45 60 -57 60 -5 0 -20 -8 -33 -17z"/>
<path d="M2316 1079 c-20 -16 -26 -29 -26 -58 0 -90 119 -114 149 -31 12 37 1
72 -31 94 -30 22 -60 20 -92 -5z"/>
<path d="M1982 604 c-24 -16 -29 -53 -12 -85 7 -13 21 -19 44 -19 59 0 87 59
46 100 -24 24 -48 25 -78 4z"/>
<path d="M546 207 c-38 -28 -13 -97 34 -97 23 0 50 32 50 58 0 20 -34 52 -55
52 -6 0 -19 -6 -29 -13z"/>
</g>
</svg>
