<?xml version="1.0" standalone="no"?>
<!DOCTYPE svg PUBLIC "-//W3C//DTD SVG 20010904//EN"
 "http://www.w3.org/TR/2001/REC-SVG-20010904/DTD/svg10.dtd">
<svg version="1.0" xmlns="http://www.w3.org/2000/svg"
 width="300.000000pt" height="200.000000pt" viewBox="0 0 300.000000 200.000000"
 preserveAspectRatio="xMidYMid meet">
<metadata>
Created by potrace 1.10, written by Peter Selinger 2001-2011
</metadata>
<g transform="translate(0.000000,200.000000) scale(0.100000,-0.100000)"
fill="#000000" stroke="none">
<path d="M394 1839 c-3 -6 -2 -14 2 -18 25 -21 114 -80 114 -75 0 7 -96 104
-103 104 -3 0 -9 -5 -13 -11z"/>
<path d="M1915 1748 c-11 -13 -32 -40 -48 -60 -15 -21 -32 -38 -39 -38 -6 0
-3 9 7 20 10 11 13 20 8 20 -18 0 -34 -27 -27 -44 6 -15 10 -14 34 9 20 20 29
23 33 13 2 -7 3 -5 1 5 -1 9 3 23 10 30 16 15 50 67 44 67 -2 0 -12 -10 -23
-22z"/>
<path d="M586 1650 c10 -20 144 -180 150 -180 9 0 -54 82 -107 140 -28 30 -47
48 -43 40z"/>
<path d="M1404 1549 c29 -34 33 -71 11 -112 -13 -25 -13 -27 3 -25 10 2 17 -3
17 -12 0 -8 -7 -13 -15 -12 -8 2 -12 0 -8 -4 10 -9 -62 -65 -74 -58 -5 3 -18
-2 -28 -11 -17 -15 -19 -15 -31 3 -8 10 -23 21 -34 25 -18 6 -18 5 2 -12 l22
-19 -20 -23 c-17 -19 -20 -34 -16 -71 2 -27 0 -48 -4 -48 -5 0 -9 4 -9 9 0 4
-17 5 -39 1 -33 -6 -38 -4 -34 10 3 11 15 17 35 18 38 1 49 11 20 18 -12 4
-21 13 -20 23 1 9 0 29 0 45 -2 24 -4 27 -17 16 -18 -15 -19 -7 -4 23 10 21
10 21 -5 3 -22 -27 -20 -41 6 -58 57 -38 -57 -73 -130 -40 -23 10 -39 21 -36
24 3 3 -1 6 -8 5 -7 -1 -30 3 -51 7 -28 6 -37 13 -33 23 3 8 6 22 6 30 0 13 3
13 15 3 9 -8 15 -9 15 -2 0 6 -4 13 -8 16 -10 6 -9 42 1 52 4 4 7 12 7 18 -1
6 -14 -5 -31 -24 -21 -25 -26 -36 -16 -38 9 -2 12 -12 9 -27 -2 -14 -6 -25 -8
-25 -2 0 -21 19 -43 42 -28 30 -36 45 -28 51 8 6 6 7 -4 4 -10 -3 -21 3 -29
18 -19 35 -5 48 46 40 52 -7 84 7 84 38 0 17 -6 22 -24 22 -20 0 -22 -3 -15
-18 12 -21 3 -25 -61 -29 -40 -3 -47 -7 -68 -43 -18 -32 -21 -49 -16 -85 3
-25 12 -55 20 -68 21 -32 15 -68 -11 -64 -11 2 -23 8 -26 14 -3 5 -9 9 -13 9
-3 0 -13 2 -21 6 -9 3 -19 3 -22 -1 -4 -3 2 -6 13 -6 16 0 17 -2 4 -10 -12 -8
-9 -10 11 -10 28 0 42 -20 33 -45 -9 -22 -41 -18 -65 6 -12 12 -19 15 -17 8 3
-8 18 -21 34 -29 16 -8 31 -17 34 -18 3 -2 -6 -13 -19 -23 -16 -13 -33 -18
-48 -14 -13 3 -23 1 -23 -4 0 -5 -3 -18 -6 -28 -5 -17 -5 -17 6 0 6 9 16 17
22 17 9 0 9 -3 0 -12 -18 -18 -14 -26 12 -24 13 0 22 6 19 11 -2 6 8 22 22 35
l26 24 -2 -29 c-1 -17 2 -38 6 -48 5 -13 4 -18 -6 -17 -26 4 -39 0 -39 -11 0
-8 4 -9 13 0 8 6 17 8 20 4 4 -3 16 2 27 12 20 18 20 17 20 -8 0 -14 -5 -29
-12 -33 -22 -14 -103 -7 -139 11 -19 10 -31 14 -26 10 4 -5 0 -19 -8 -31 -17
-27 -5 -73 20 -75 8 -1 20 -3 25 -4 6 -1 17 -3 25 -4 19 -1 20 -30 0 -37 -8
-3 -17 -16 -21 -27 -3 -12 -11 -28 -17 -36 -6 -7 -12 -18 -13 -25 -1 -6 -5
-19 -9 -28 -14 -35 21 -19 38 17 18 38 24 41 62 23 31 -14 29 -42 -3 -46 -12
-2 -20 -8 -17 -13 7 -11 43 7 66 33 22 24 33 23 64 -7 23 -24 25 -24 25 -7 0
13 -9 22 -25 26 -14 4 -23 11 -19 17 4 6 14 5 30 -5 27 -18 34 -20 34 -7 0 5
-11 12 -25 15 -34 9 -23 24 23 32 38 7 86 29 109 51 11 9 9 11 -7 10 -11 -1
-20 -6 -20 -12 0 -6 -3 -6 -8 1 -4 6 -14 11 -22 12 -8 0 -28 4 -45 9 l-29 9
31 16 c25 13 30 13 26 2 -3 -8 -1 -14 3 -15 5 0 29 -2 52 -5 30 -4 42 -2 37 5
-3 6 -2 11 4 11 13 0 32 -35 24 -44 -3 -3 -1 -6 5 -6 21 0 23 20 3 42 -12 12
-21 27 -21 32 0 24 13 56 22 56 5 0 4 -8 -2 -19 -15 -29 -12 -41 11 -41 11 0
18 4 14 9 -3 5 -1 12 5 16 5 3 10 15 10 26 0 11 -4 18 -9 15 -5 -3 -15 2 -22
11 -12 14 -12 16 0 9 9 -6 12 -5 9 5 -3 8 -11 13 -18 11 -10 -2 -10 1 1 14 9
12 9 15 2 10 -7 -4 -13 -2 -13 3 0 6 9 11 19 11 22 0 36 16 22 24 -5 4 -12 2
-16 -4 -3 -5 -13 -10 -21 -10 -8 0 -12 5 -9 10 3 6 3 10 -2 11 -57 5 -72 3
-77 -13 -3 -14 -1 -16 14 -8 10 6 27 10 37 10 15 0 16 -2 3 -10 -12 -8 -12
-10 5 -11 11 0 15 -3 8 -5 -8 -4 -8 -12 2 -30 7 -14 11 -34 8 -44 -4 -16 -9
-18 -25 -9 -11 6 -30 8 -41 5 -13 -3 -30 2 -42 12 -20 17 -20 17 -2 -4 17 -20
17 -22 -2 -45 -11 -13 -20 -19 -21 -12 0 6 6 14 13 16 7 3 5 6 -5 6 -10 1 -18
-4 -18 -10 0 -13 -25 -39 -39 -39 -5 0 -12 8 -14 18 -3 12 -5 11 -6 -6 0 -13
-5 -20 -11 -17 -5 3 -10 1 -10 -4 0 -17 -26 -13 -41 6 -12 15 -12 16 3 10 10
-3 20 -2 23 4 4 5 11 7 16 3 6 -3 7 4 4 18 -4 16 -1 29 9 37 20 17 20 20 1 66
-14 32 -18 35 -33 24 -14 -11 -15 -11 -5 0 6 7 9 27 6 45 -4 24 1 36 21 55 14
14 26 35 26 48 l0 24 26 -28 c14 -15 23 -23 20 -16 -10 18 28 35 44 20 10 -10
11 -8 6 10 -11 34 8 35 42 1 18 -16 32 -27 32 -24 0 4 10 -3 23 -15 15 -15 18
-23 10 -26 -7 -3 -13 -9 -13 -15 0 -6 -8 -17 -17 -24 -14 -10 -15 -12 -3 -11
8 2 20 5 25 9 23 14 121 -14 110 -32 -3 -5 -13 -10 -21 -10 -8 0 -12 5 -9 10
3 6 2 10 -2 10 -5 0 -14 -13 -20 -30 -9 -25 -9 -30 4 -30 13 0 13 -3 3 -15
-10 -12 -10 -15 4 -15 9 0 16 -4 16 -10 0 -5 5 -10 11 -10 7 0 8 7 4 18 -4 9
-8 23 -8 30 0 6 -4 12 -9 12 -4 0 -8 5 -8 10 0 6 16 10 35 10 19 0 35 -4 35
-10 0 -5 7 -6 17 -3 12 5 14 3 8 -7 -5 -9 -4 -11 4 -6 14 9 -4 36 -24 36 -19
0 -26 27 -10 34 8 3 17 1 20 -5 4 -5 11 -6 17 -3 7 5 9 1 5 -9 -3 -9 -2 -19 2
-22 5 -2 11 9 13 26 4 25 1 33 -14 37 -20 5 -24 17 -7 28 7 4 16 0 21 -9 7
-13 13 -14 33 -5 29 13 35 9 38 -21 1 -11 5 -21 10 -21 5 0 6 8 2 18 -19 46
-17 97 5 125 12 15 25 27 30 27 5 0 21 5 37 12 15 6 31 12 36 12 4 1 23 14 44
30 35 28 57 34 158 39 35 2 63 -33 69 -86 2 -19 9 -32 17 -32 8 -1 13 -7 11
-14 -1 -7 2 -19 8 -25 5 -7 6 -17 2 -22 -4 -4 0 -3 9 4 10 8 19 8 26 1 7 -7
20 -4 42 8 32 18 38 43 11 51 -8 3 -12 1 -8 -3 4 -4 3 -16 -3 -26 -11 -21 -49
-26 -49 -6 0 9 -2 9 -9 -1 -7 -11 -9 -11 -14 1 -8 22 1 26 33 17 29 -8 29 -8
15 14 -8 12 -12 26 -8 29 3 4 2 7 -3 7 -6 0 -15 -5 -22 -12 -18 -18 -36 4 -36
44 -1 19 -6 32 -12 31 -6 -1 -12 10 -12 25 0 18 12 37 37 59 20 18 39 33 42
33 4 0 9 10 12 21 5 19 3 19 -26 -7 -18 -16 -26 -22 -19 -14 17 20 15 35 -3
20 -8 -7 -15 -18 -15 -25 0 -7 -7 -18 -15 -25 -20 -17 -20 1 1 43 l16 32 -31
-35 c-16 -19 -30 -42 -30 -50 -1 -13 0 -13 9 0 8 13 10 12 10 -2 0 -10 -6 -18
-12 -19 -7 0 -42 -2 -78 -5 -36 -2 -71 0 -78 5 -8 4 -17 36 -21 69 -4 37 -15
69 -26 82 -29 32 -39 23 -11 -11z m-579 -189 c10 -11 15 -26 11 -36 -4 -11 -2
-15 8 -11 8 3 21 -2 30 -12 20 -22 20 -27 -1 -35 -10 -3 -26 -11 -35 -18 -11
-8 -21 -9 -27 -3 -10 12 -20 135 -11 135 4 0 15 -9 25 -20z m180 -153 c9 -10
22 -14 28 -11 9 5 8 3 0 -6 -10 -11 -20 -8 -52 15 -58 39 -75 63 -29 38 19
-11 43 -27 53 -36z m90 -7 c-11 -5 -15 -9 -10 -9 15 -2 -18 -21 -35 -21 -12 1
-12 3 2 14 10 7 15 16 11 19 -3 4 7 7 23 6 25 0 26 -2 9 -9z m35 -29 c0 -5 3
-18 7 -28 3 -10 3 -15 -2 -11 -4 4 -16 3 -27 -3 -10 -5 -24 -6 -31 -2 -12 8
-17 9 -50 11 -10 1 -15 7 -12 12 4 6 22 9 41 6 22 -4 38 -1 46 9 15 16 28 19
28 6z m-177 -205 c3 -7 0 -19 -6 -25 -9 -9 -8 -11 6 -6 21 9 22 -1 2 -21 -13
-14 -16 -13 -25 10 -10 26 -4 56 10 56 4 0 10 -6 13 -14z m-251 -38 c-5 -5
-20 -8 -33 -6 l-24 5 25 10 c28 12 47 6 32 -9z m104 -80 c4 -5 -10 -25 -30
-44 -35 -33 -37 -34 -55 -17 -24 24 -32 48 -19 61 14 14 96 13 104 0z"/>
<path d="M2740 1473 c-18 -7 -70 -54 -70 -64 0 -10 93 2 108 14 17 13 15 44
-4 51 -9 3 -16 6 -17 5 -1 0 -9 -3 -17 -6z"/>
<path d="M2037 1383 c-3 -5 12 -9 34 -9 21 -1 39 2 39 5 0 10 -68 13 -73 4z"/>
<path d="M1944 1356 c-3 -9 -12 -12 -22 -9 -11 5 -14 2 -10 -8 4 -11 -1 -15
-18 -15 -17 0 -23 4 -19 14 2 7 1 11 -4 7 -5 -3 -12 1 -14 7 -5 12 3 -47 12
-91 1 -2 9 7 19 19 11 13 33 23 62 27 40 6 44 4 32 -9 -11 -13 -10 -16 5 -14
10 0 18 -6 18 -14 0 -10 -8 -14 -25 -12 -18 2 -22 0 -13 -9 17 -17 46 -6 54
21 7 26 7 26 13 -30 1 -8 -7 -27 -16 -42 -14 -20 -15 -28 -6 -31 10 -4 10 -6
0 -6 -7 -1 -15 6 -19 14 -5 13 -8 13 -20 -5 -8 -11 -19 -18 -24 -15 -12 8 -11
-2 2 -27 9 -16 8 -23 -2 -29 -8 -5 -9 -9 -3 -9 21 0 35 25 22 38 -9 9 -9 12 1
12 7 0 9 5 6 10 -3 6 -1 10 4 10 6 0 11 -7 11 -15 0 -9 7 -18 15 -21 12 -5 13
-10 4 -20 -6 -8 -15 -11 -20 -8 -5 3 -9 -4 -9 -15 0 -12 -5 -21 -11 -21 -5 0
-7 5 -4 10 3 6 1 10 -4 10 -6 0 -11 -7 -11 -15 0 -9 9 -15 23 -15 13 0 32 -7
43 -15 24 -18 34 -19 34 -1 0 8 7 17 16 20 12 5 15 2 10 -11 -4 -10 -4 -14 0
-10 4 4 13 2 21 -4 10 -9 13 -8 13 4 0 21 -27 40 -48 35 -22 -6 -46 18 -38 38
3 8 -1 17 -10 21 -13 5 -13 7 -2 14 18 12 31 11 23 -1 -6 -10 6 -14 38 -11 9
1 17 -3 17 -9 0 -6 -4 -8 -10 -5 -6 3 -7 -1 -4 -9 3 -9 2 -16 -4 -16 -6 0 -13
6 -15 13 -3 7 -6 5 -6 -5 -1 -12 6 -18 19 -18 11 0 20 4 20 9 0 5 9 11 20 14
25 7 26 27 1 27 -20 0 -35 25 -25 41 3 5 1 9 -4 9 -16 0 -22 -13 -11 -27 9
-10 8 -13 -5 -13 -21 0 -32 26 -17 44 6 7 8 16 4 19 -3 4 -1 7 7 7 10 0 10 4
-1 18 -13 15 -12 16 3 3 15 -11 19 -11 24 3 4 9 0 24 -8 34 -17 19 -13 46 5
36 8 -5 8 -2 0 6 -11 12 -16 11 -29 -6 -15 -18 -15 -18 -9 11 4 22 3 26 -5 15
-5 -9 -10 -10 -10 -3 0 6 -9 9 -20 6 -11 -3 -20 0 -20 6 0 5 -6 8 -14 5 -8 -3
-17 0 -22 7 -5 8 -3 10 6 4 9 -5 11 -4 6 3 -10 16 -15 15 -22 -2z"/>
<path d="M960 1340 c0 -5 9 -10 21 -10 14 0 19 -5 16 -14 -3 -8 4 -21 18 -30
29 -19 39 -20 29 -4 -5 7 -3 8 7 2 8 -4 20 -9 28 -11 8 -1 18 -7 22 -15 4 -7
11 -9 14 -6 4 4 -2 14 -14 24 -11 10 -18 21 -16 25 3 4 -10 3 -29 -1 -36 -8
-68 2 -46 15 8 5 6 11 -7 21 -21 16 -43 18 -43 4z"/>
<path d="M1826 1325 c19 -15 19 -15 0 -30 -11 -8 -17 -15 -14 -15 3 0 0 -21
-8 -47 -16 -52 -18 -70 -6 -59 4 4 7 11 8 14 0 4 4 22 8 41 7 30 10 32 18 16
8 -12 7 -20 -3 -27 -10 -7 -8 -8 7 -3 15 4 24 0 28 -10 3 -9 11 -13 17 -9 8 5
7 10 -4 16 -10 5 -14 16 -11 26 5 15 4 15 -6 2 -9 -13 -11 -12 -8 5 2 11 -3
26 -12 33 -13 10 -13 12 0 9 8 -2 12 -2 7 0 -4 3 -4 9 -1 14 7 12 -14 39 -29
39 -6 0 -2 -7 9 -15z"/>
<path d="M2230 1284 c0 -8 -4 -13 -9 -10 -5 3 -14 -1 -21 -9 -11 -14 -10 -14
14 -5 22 8 28 7 33 -8 4 -9 13 -23 20 -30 7 -8 10 -18 7 -24 -4 -7 2 -7 17 -3
22 7 23 7 9 -11 -14 -18 -14 -18 3 -5 19 15 24 2 6 -16 -9 -9 -21 -7 -50 8
-41 20 -56 9 -16 -12 12 -7 23 -12 25 -11 1 1 8 2 15 2 7 -1 5 -6 -6 -14 -12
-9 -14 -16 -8 -21 6 -3 11 -1 11 4 0 6 3 10 8 10 4 -1 14 -1 22 0 13 1 13 2 0
11 -12 8 -12 10 3 16 9 3 17 14 17 23 0 14 2 14 10 1 7 -11 12 -12 21 -3 16
16 2 35 -19 24 -21 -11 -60 17 -56 41 1 10 -4 22 -12 29 -11 9 -14 9 -14 0 0
-7 -4 -10 -10 -6 -5 3 -7 12 -3 20 3 8 0 15 -6 15 -6 0 -11 -7 -11 -16z"/>
<path d="M2452 1289 c-13 -5 -29 -6 -34 -2 -6 3 -8 2 -5 -4 4 -6 -13 -17 -39
-25 -25 -8 -45 -18 -44 -24 1 -5 8 -8 16 -6 9 2 22 -2 30 -9 12 -9 13 -9 9 3
-5 11 13 18 77 30 48 10 84 13 86 7 2 -5 8 -9 13 -9 6 0 7 5 3 12 -5 8 4 9 34
4 50 -8 93 -26 86 -37 -4 -7 54 6 63 14 2 2 0 12 -3 22 -6 14 -15 16 -47 12
-22 -3 -69 1 -106 9 -76 16 -106 17 -139 3z"/>
<path d="M2090 1210 c-8 -5 -11 -12 -7 -17 5 -4 12 -1 17 7 8 13 10 12 10 -2
0 -9 9 -23 21 -31 11 -8 21 -24 22 -36 1 -18 6 -21 22 -15 11 3 30 6 43 6 23
0 32 17 10 19 -7 0 -23 2 -35 3 -12 1 -20 -1 -17 -6 3 -4 1 -8 -4 -8 -5 0 -12
9 -15 21 -4 16 -2 19 10 15 13 -6 14 -4 3 9 -10 12 -15 13 -20 4 -9 -14 -30
-3 -30 16 0 19 -13 25 -30 15z"/>
<path d="M2471 1181 c-11 -7 -9 -10 10 -13 13 -1 28 -13 34 -25 5 -13 14 -23
18 -23 5 0 7 3 5 8 -33 67 -38 71 -67 53z"/>
<path d="M1865 1160 c3 -5 1 -10 -5 -10 -6 0 -8 -5 -4 -11 4 -8 9 -7 15 2 8
13 13 5 10 -13 0 -5 8 -8 19 -8 13 0 18 5 14 15 -4 8 -1 15 7 15 7 0 9 3 6 6
-4 4 -13 1 -22 -6 -12 -10 -16 -9 -21 4 -3 9 -10 16 -16 16 -5 0 -6 -4 -3 -10z"/>
<path d="M1350 1102 c0 -15 55 -34 82 -29 19 4 18 5 -7 6 -17 0 -41 8 -53 17
-12 8 -22 11 -22 6z"/>
<path d="M1506 1092 c17 -11 27 -62 13 -62 -16 0 -3 -13 15 -16 10 -1 11 7 3
42 -7 29 -16 44 -26 44 -10 0 -12 -3 -5 -8z"/>
<path d="M1887 1062 c14 -14 19 -29 16 -42 -3 -11 -1 -20 4 -20 11 0 37 69 29
77 -3 4 -6 -1 -6 -11 0 -15 -2 -15 -32 0 l-33 16 22 -20z"/>
<path d="M1960 1009 c0 -14 -5 -19 -15 -16 -19 8 -24 -3 -14 -30 9 -25 46 -32
46 -8 0 11 -4 12 -14 4 -10 -9 -13 -8 -13 1 0 6 9 14 20 17 11 3 20 10 20 17
0 6 4 5 9 -3 5 -8 17 -16 26 -17 9 -1 20 -6 23 -10 4 -4 0 -5 -8 -2 -8 3 -20
-5 -26 -16 -6 -12 -16 -20 -22 -18 -7 1 -12 -5 -12 -14 0 -8 5 -12 11 -8 6 3
15 0 20 -7 11 -18 22 -5 22 27 0 18 2 22 8 13 8 -12 11 -11 19 1 7 11 10 11
10 2 0 -7 4 -11 9 -8 5 4 7 -3 4 -14 -3 -11 -9 -20 -14 -20 -5 0 -6 8 -2 18 5
14 3 13 -10 -3 -18 -24 -18 -24 16 -27 15 -1 27 -6 27 -11 0 -5 -10 -5 -21 -2
-16 5 -19 4 -14 -6 6 -9 4 -11 -8 -6 -9 3 -21 -1 -29 -10 -10 -13 -10 -17 0
-21 17 -5 44 -60 37 -72 -3 -6 -2 -10 3 -10 22 0 20 31 -3 56 -14 15 -25 34
-25 43 0 13 2 13 9 2 5 -8 11 -9 15 -3 3 6 20 10 36 10 30 -1 30 -1 10 -20
-11 -11 -26 -16 -33 -12 -8 5 -7 2 2 -9 14 -18 36 -24 26 -7 -3 6 -1 10 5 10
7 0 10 -6 7 -14 -3 -7 -1 -18 5 -24 8 -8 6 -18 -5 -36 -10 -15 -13 -27 -7 -31
6 -3 10 -12 10 -18 0 -8 -3 -8 -9 1 -7 11 -9 11 -14 -1 -3 -8 0 -20 6 -27 10
-10 8 -10 -9 -1 -18 9 -21 8 -20 -6 2 -22 -21 -28 -27 -6 -4 15 -5 14 -6 -4 0
-12 5 -23 12 -26 6 -2 0 -4 -14 -4 -22 0 -26 4 -26 26 0 14 8 32 18 39 20 14
17 32 -4 32 -8 0 -7 -3 2 -9 11 -7 10 -11 -5 -19 -11 -5 -24 -7 -31 -5 -7 2
-18 -5 -25 -16 -15 -24 -33 -29 -25 -7 3 8 -1 20 -9 27 -12 10 -12 14 -2 20 7
4 9 11 6 14 -10 10 -28 -4 -28 -21 0 -8 5 -14 10 -14 6 0 10 -10 10 -21 0 -18
-3 -19 -14 -10 -11 9 -20 9 -34 2 -26 -14 -32 -5 -25 31 4 20 1 33 -8 39 -10
6 -10 9 -1 9 6 0 12 9 12 20 0 12 9 22 24 26 28 7 46 -1 46 -19 0 -9 -2 -9 -8
0 -4 7 -17 10 -30 6 -22 -5 -22 -6 -5 -22 23 -22 67 -16 57 8 -3 9 -7 22 -7
29 0 6 -7 12 -15 12 -12 0 -12 3 -1 18 13 16 13 16 -7 0 -25 -22 -41 -24 -24
-3 8 9 8 15 2 15 -6 0 -10 13 -10 30 1 26 3 28 16 17 13 -9 14 -9 8 1 -4 7 -2
12 6 12 10 0 10 2 -1 9 -8 5 -20 7 -26 4 -9 -3 -11 4 -7 23 4 24 3 26 -10 13
-9 -7 -13 -20 -11 -27 3 -7 0 -10 -9 -7 -10 4 -13 15 -10 32 6 31 -13 24 -21
-7 -4 -16 1 -24 21 -31 33 -13 44 -29 31 -45 -7 -8 -6 -14 1 -19 5 -3 10 -11
10 -16 0 -6 -5 -7 -12 -3 -6 4 -8 3 -5 -3 9 -14 -15 -63 -30 -63 -7 0 -13 -8
-13 -17 0 -14 -2 -15 -9 -5 -6 10 -10 10 -20 -2 -7 -8 -19 -12 -27 -9 -11 4
-12 8 -3 19 9 12 9 13 -4 8 -15 -5 -41 -63 -33 -71 2 -3 7 5 11 17 7 22 26 23
33 0 3 -8 0 -10 -7 -5 -9 5 -9 2 0 -13 12 -18 14 -19 25 -5 6 9 9 25 6 35 -2
10 0 18 6 18 19 0 20 -39 1 -61 -10 -12 -19 -29 -18 -38 0 -11 2 -12 6 -3 4
10 8 10 19 1 16 -13 19 -33 4 -24 -6 3 -10 -4 -10 -17 0 -19 2 -20 11 -8 9 12
10 11 6 -7 -3 -15 -1 -20 9 -16 8 3 14 12 14 20 0 8 5 11 10 8 6 -4 8 -11 5
-16 -4 -5 -1 -9 4 -9 6 0 11 9 11 20 0 11 -6 20 -14 20 -8 0 -18 5 -22 11 -4
8 3 9 25 4 21 -4 31 -3 31 5 0 7 -7 10 -15 6 -8 -3 -15 -1 -15 5 0 6 -7 9 -15
5 -18 -7 -45 3 -45 16 0 6 7 8 15 4 12 -4 14 3 11 34 -4 40 7 54 18 24 4 -9 2
-22 -4 -29 -8 -9 -6 -17 5 -29 20 -19 32 -20 37 -4 3 9 10 8 22 -5 12 -12 25
-15 43 -10 21 5 31 0 49 -22 22 -28 23 -28 59 -14 20 8 36 18 35 22 -1 5 8 17
19 26 11 10 18 21 14 25 -3 3 -1 6 5 6 11 0 17 -20 13 -42 0 -5 3 -8 9 -8 5 0
12 -16 16 -35 3 -19 10 -35 15 -35 13 0 6 28 -20 85 -15 34 -20 60 -16 80 3
17 5 42 5 58 0 15 4 27 10 27 5 0 10 5 10 10 0 6 -10 10 -22 10 -22 1 -22 1
-5 14 14 11 15 15 5 19 -11 4 -11 6 0 6 10 1 10 4 -2 16 -8 8 -19 15 -25 15
-15 0 -14 17 2 23 7 3 5 6 -5 6 -21 1 -23 21 -5 40 10 11 10 13 0 7 -7 -4 -13
-2 -13 3 0 6 -9 11 -20 11 -24 0 -90 31 -90 42 0 4 -7 8 -15 8 -9 0 -15 -9
-15 -21z"/>
<path d="M2310 975 c-7 -8 -9 -15 -6 -15 4 0 0 -7 -9 -16 -9 -9 -13 -19 -10
-22 7 -7 23 9 27 28 2 8 10 20 18 27 9 7 10 12 4 13 -6 0 -17 -7 -24 -15z"/>
<path d="M1060 969 c0 -4 6 -10 13 -13 6 -4 2 -4 -10 -2 -13 2 -23 0 -23 -5 0
-5 5 -9 10 -9 6 0 10 -4 10 -10 0 -5 -6 -9 -12 -7 -7 1 -14 -9 -15 -23 -1 -14
0 -19 3 -12 3 6 12 12 20 12 8 0 14 9 14 19 0 11 5 23 10 26 15 9 12 32 -5 32
-8 0 -15 -4 -15 -8z"/>
<path d="M1768 953 c-16 -4 -16 -6 -3 -19 8 -9 15 -25 15 -38 0 -12 5 -27 11
-33 15 -15 39 -5 39 16 0 13 -2 13 -9 2 -12 -19 -30 -5 -24 19 3 11 0 20 -6
20 -6 0 -11 7 -11 15 0 18 16 20 23 3 3 -8 6 -6 6 5 1 17 -8 19 -41 10z"/>
<path d="M2200 900 c-8 -5 -11 -10 -6 -10 5 0 4 -6 -2 -13 -9 -10 -5 -13 18
-11 17 1 30 -2 30 -7 0 -5 -5 -9 -12 -9 -6 0 -9 -3 -5 -6 3 -3 13 -1 23 4 15
9 14 11 -9 27 -15 9 -24 21 -21 26 7 11 3 11 -16 -1z"/>
<path d="M1468 894 c6 -3 9 -11 5 -17 -4 -7 -1 -7 9 1 10 8 19 9 22 3 4 -5 2
-12 -4 -16 -6 -4 -8 -11 -5 -16 10 -15 21 -10 22 11 2 22 -12 33 -42 37 -11 1
-14 -1 -7 -3z"/>
<path d="M1534 872 c4 -7 3 -12 -1 -12 -12 0 -15 -48 -3 -55 6 -3 10 -3 11 2
4 46 3 65 -5 70 -5 3 -6 1 -2 -5z"/>
<path d="M1680 851 c-8 -6 -28 -7 -45 -5 -26 5 -27 4 -12 -6 10 -7 27 -10 38
-7 15 4 19 0 19 -19 0 -13 3 -24 8 -24 4 0 7 16 7 35 0 19 0 35 0 35 0 0 -7
-4 -15 -9z"/>
<path d="M965 845 c-5 -2 -23 -6 -38 -10 -23 -5 -27 -9 -17 -20 9 -11 7 -16
-9 -24 -11 -6 -27 -11 -35 -11 -15 0 -34 -46 -23 -56 3 -3 24 -8 46 -11 32 -4
41 -2 41 10 0 19 19 26 52 20 18 -3 33 3 53 22 16 14 22 23 13 20 -9 -4 -19
-1 -23 4 -3 6 -11 9 -16 6 -5 -4 -10 -1 -10 4 -1 6 -3 16 -4 21 -1 6 -3 15 -4
20 -1 10 -7 11 -26 5z m4 -24 c19 -12 21 -49 4 -55 -7 -3 -13 1 -13 8 0 7 -7
19 -15 26 -29 24 -9 42 24 21z m-48 -58 c10 -12 10 -15 1 -9 -7 4 -19 1 -27
-8 -11 -11 -12 -16 -2 -19 8 -4 7 -6 -3 -6 -8 0 -21 3 -29 8 -11 7 -9 13 8 30
25 25 34 26 52 4z"/>
<path d="M1560 822 c0 -12 24 -22 51 -22 24 0 25 15 2 16 -10 1 -26 4 -35 9
-11 4 -18 3 -18 -3z"/>
<path d="M1675 764 c11 -12 13 -20 6 -27 -13 -13 -14 -54 -2 -62 5 -3 12 -1
16 5 3 5 2 10 -3 10 -5 0 -9 7 -9 15 0 11 4 12 14 3 7 -6 16 -8 20 -4 3 3 1 6
-6 6 -8 0 -10 7 -6 20 4 11 2 20 -4 20 -6 0 -11 7 -11 15 0 8 -7 15 -16 15
-14 0 -14 -2 1 -16z"/>
<path d="M1461 754 c0 -6 -16 -19 -33 -28 -29 -14 -30 -16 -10 -16 13 0 21 -4
18 -9 -3 -5 1 -14 9 -21 12 -10 13 -7 5 19 -8 28 -7 29 11 18 16 -10 21 -9 29
3 7 11 10 7 10 -17 0 -26 -5 -34 -25 -39 -14 -3 -25 -13 -25 -21 0 -9 -5 -11
-12 -7 -9 6 -9 3 1 -9 14 -18 58 -16 53 3 -1 6 2 9 7 6 5 -3 7 -15 4 -26 -3
-11 0 -26 6 -34 8 -10 9 -16 1 -21 -14 -9 -32 4 -24 18 4 7 5 10 1 7 -3 -3 -6
-8 -6 -13 0 -4 -14 -22 -31 -40 -16 -17 -30 -35 -30 -40 0 -4 -11 -5 -24 -1
-13 3 -27 1 -30 -5 -9 -14 -53 -14 -61 -1 -3 6 -14 10 -23 10 -9 0 -23 4 -30
9 -17 10 -24 93 -10 102 6 4 1 10 -11 14 -17 5 -21 13 -19 41 1 19 6 34 10 34
4 0 8 5 8 10 0 6 -9 10 -21 10 -16 0 -19 -4 -14 -22 3 -13 3 -18 -2 -12 -5 7
-16 8 -28 3 -19 -7 -19 -8 2 -8 12 -1 25 -6 29 -12 5 -8 -3 -10 -24 -7 -23 3
-32 0 -35 -11 -3 -10 -5 -7 -6 7 -1 21 -10 26 -38 23 -7 -1 -13 2 -13 7 0 14
28 23 35 12 8 -12 25 -13 25 -1 0 5 -8 11 -17 15 -10 3 -24 9 -32 12 -10 5
-11 3 -5 -7 6 -11 4 -11 -12 1 -10 7 -25 21 -32 30 -12 13 -13 13 -11 0 5 -26
-12 -74 -32 -94 -11 -10 -18 -20 -15 -23 3 -3 12 2 20 10 19 19 71 31 87 21 9
-5 7 -11 -6 -21 -11 -7 -14 -13 -9 -13 6 0 16 6 22 12 10 10 15 10 22 -2 13
-21 2 -31 -28 -25 -24 5 -25 4 -5 -4 21 -10 40 -47 29 -58 -3 -4 -6 -1 -6 6 0
6 -10 15 -22 20 -12 4 -28 23 -35 42 l-13 34 6 -45 c3 -33 2 -41 -5 -29 -11
17 -69 21 -62 4 2 -5 13 -9 23 -7 23 4 71 -44 62 -61 -5 -8 -3 -8 7 1 7 6 20
12 29 12 24 0 58 42 54 66 -3 16 3 23 19 28 32 8 39 -5 28 -55 -5 -24 -9 -44
-8 -44 1 -1 19 -13 39 -28 20 -15 48 -27 61 -27 14 0 31 -9 39 -21 l13 -21 42
22 c23 12 47 28 54 37 12 13 14 13 21 -4 8 -16 8 -16 5 2 -2 11 2 33 8 48 11
26 13 27 27 14 11 -12 18 -13 27 -4 14 14 15 47 1 47 -5 0 -10 4 -10 9 0 4 11
6 24 4 13 -3 27 0 30 6 4 5 13 8 21 4 10 -3 15 2 15 16 0 12 12 33 26 46 26
24 27 55 2 55 -10 0 -10 -2 1 -9 10 -7 9 -14 -9 -34 -13 -15 -26 -24 -30 -22
-4 2 -5 -8 -3 -23 4 -21 2 -24 -6 -12 -8 11 -11 11 -11 2 0 -7 -7 -15 -15 -18
-21 -8 -76 51 -62 65 14 14 30 14 22 1 -3 -5 -1 -10 5 -10 7 0 10 -6 7 -14 -7
-18 18 -42 28 -26 3 5 3 10 -2 10 -4 0 -1 5 7 11 13 9 13 10 -2 6 -9 -3 -19 1
-22 9 -4 12 -1 14 14 9 12 -4 20 -2 20 5 0 7 7 9 16 6 8 -3 13 -2 9 3 -3 5 1
12 7 14 10 4 10 6 -1 6 -11 1 -10 6 3 26 14 21 14 24 1 19 -8 -4 -15 -10 -15
-16 0 -5 -4 -6 -10 -3 -5 3 -7 0 -5 -7 3 -8 -2 -22 -10 -33 -16 -20 -16 -20
-10 3 5 17 2 22 -12 23 -16 0 -16 1 2 9 17 6 14 9 -17 15 -21 4 -44 5 -52 2
-9 -4 -17 1 -19 11 -3 9 -5 12 -6 6z"/>
<path d="M1963 723 c-13 -28 -8 -47 6 -24 5 8 14 10 21 6 9 -6 9 -2 0 16 -7
13 -13 25 -14 26 -1 1 -7 -10 -13 -24z"/>
<path d="M384 695 c-19 -15 -19 -16 1 -13 27 4 32 -35 9 -70 -17 -27 -17 -27
3 -9 14 12 22 34 25 63 3 47 -5 54 -38 29z"/>
<path d="M880 671 c0 -7 10 -11 23 -10 12 1 30 -2 40 -6 18 -8 35 0 24 11 -12
13 -87 17 -87 5z"/>
<path d="M1640 651 c-14 -14 -16 -31 -11 -81 1 -13 2 -13 11 0 5 8 7 25 3 37
-3 14 -1 23 6 23 6 0 12 -9 12 -20 2 -33 4 -38 12 -46 4 -4 7 -2 7 5 0 7 10
10 23 7 33 -6 54 8 40 26 -8 9 -7 16 3 26 10 10 14 10 14 1 0 -7 3 -9 6 -6 8
7 -14 37 -27 37 -5 0 -6 -6 -3 -14 3 -8 -4 -16 -20 -20 -15 -4 -26 -13 -26
-23 0 -25 -17 -4 -27 33 -7 28 -9 29 -23 15z"/>
<path d="M559 617 c13 -15 28 -24 32 -21 10 6 0 34 -11 34 -5 0 -17 3 -27 7
-15 5 -13 1 6 -20z"/>
<path d="M820 610 c0 -5 -6 -8 -12 -6 -7 1 -10 1 -5 -1 4 -3 5 -9 1 -14 -3 -5
-1 -9 5 -9 5 0 14 6 18 14 4 8 17 16 28 19 15 4 14 5 -7 6 -16 0 -28 -3 -28
-9z"/>
<path d="M1556 571 c-10 -16 -1 -81 11 -81 6 0 18 9 26 21 11 15 16 17 20 7 4
-9 6 -7 6 5 1 9 5 17 10 17 5 0 9 -6 8 -12 -1 -43 3 -49 33 -46 16 2 29 -1 29
-5 0 -14 31 -38 51 -40 13 -1 20 -9 21 -22 1 -18 2 -18 6 -2 3 11 -4 27 -16
38 -11 11 -18 25 -15 33 6 16 44 29 44 14 0 -5 5 -6 10 -3 6 3 13 -1 16 -9 9
-22 23 -20 17 3 -2 10 3 25 12 34 15 16 14 16 -14 11 -24 -5 -31 -3 -31 9 0 9
-5 19 -12 23 -8 5 -9 0 -5 -15 3 -13 3 -20 0 -17 -3 3 -18 -3 -33 -14 -35 -25
-39 -25 -33 -1 3 10 -1 22 -8 26 -7 5 -10 4 -6 -2 11 -17 -16 -34 -33 -21 -13
8 -12 9 2 4 11 -3 15 -1 12 8 -3 7 -13 13 -22 13 -41 0 -52 4 -52 18 0 16 -45
21 -54 6z"/>
<path d="M2080 550 c8 -5 11 -10 6 -10 -11 0 25 -29 36 -30 3 0 4 9 1 20 -3
11 -9 18 -13 15 -5 -3 -11 -1 -15 5 -3 5 -12 10 -18 10 -7 0 -6 -4 3 -10z"/>
<path d="M2205 532 c-5 -4 -11 -11 -12 -17 -1 -5 -4 -18 -8 -27 -5 -13 -2 -15
15 -11 14 4 19 11 15 21 -3 8 0 21 6 28 12 15 1 19 -16 6z"/>
<path d="M1141 498 c-5 -13 -7 -26 -4 -31 2 -4 -3 -10 -11 -13 -12 -5 -13 -9
-3 -25 6 -10 19 -19 27 -19 8 0 38 -25 67 -56 29 -32 57 -53 63 -49 14 9 2 94
-16 116 -8 8 -14 24 -14 33 0 15 -6 17 -33 12 -25 -5 -36 -2 -49 13 -11 13
-13 21 -5 24 8 2 8 5 -1 11 -8 5 -15 -1 -21 -16z"/>
<path d="M1510 469 c0 -5 -4 -8 -9 -5 -5 3 -13 0 -19 -7 -8 -9 1 -23 33 -53
37 -35 44 -38 48 -22 3 10 1 16 -4 12 -5 -3 -19 5 -32 18 -13 13 -26 24 -30
26 -11 4 -8 17 5 17 6 0 13 6 16 13 2 6 1 12 -2 12 -3 0 -6 -5 -6 -11z"/>
<path d="M538 438 c-16 -5 -28 -14 -28 -18 0 -8 67 15 79 26 8 7 -24 3 -51 -8z"/>
<path d="M1614 316 c-6 -16 25 -76 38 -76 12 0 9 12 -8 31 -8 9 -16 26 -17 38
-2 25 -5 27 -13 7z"/>
<path d="M1235 206 c4 -37 11 -54 19 -45 2 2 -3 22 -10 44 l-14 40 5 -39z"/>
</g>
</svg>
